<svg width="20" height="20" viewBox="0 0 20 20" fill="none" xmlns="http://www.w3.org/2000/svg">
<path opacity="0.4" d="M13.617 1.6665H6.39199C3.56699 1.6665 1.66699 3.64984 1.66699 6.59984V13.4082C1.66699 16.3498 3.56699 18.3332 6.39199 18.3332H13.617C16.442 18.3332 18.3337 16.3498 18.3337 13.4082V6.59984C18.3337 3.64984 16.442 1.6665 13.617 1.6665Z" fill="#FD5353"/>
<path d="M12.5129 11.4752L11.0304 9.99358L12.5121 8.51192C12.7971 8.22775 12.7971 7.76525 12.5121 7.48108C12.2271 7.19442 11.7663 7.19525 11.4813 7.48025L9.99878 8.96192L8.51628 7.47858C8.23128 7.19358 7.76961 7.19525 7.48461 7.47858C7.20044 7.76358 7.20044 8.22608 7.48461 8.51025L8.96794 9.99358L7.48794 11.4727C7.20294 11.7577 7.20294 12.2202 7.48794 12.5036C7.63044 12.6469 7.81628 12.7177 8.00294 12.7177C8.19044 12.7177 8.37628 12.6469 8.51878 12.5044L9.99878 11.0244L11.4821 12.5069C11.6246 12.6494 11.8104 12.7202 11.9971 12.7202C12.1838 12.7202 12.3704 12.6486 12.5129 12.5069C12.7979 12.2219 12.7979 11.7602 12.5129 11.4752Z" fill="#FD5353"/>
</svg>
